<mxfile host="app.diagrams.net" modified="2021-05-20T17:39:56.833Z" agent="5.0 (X11)" etag="Kg8N56vvCnim8Av0rk_w" version="14.6.13" type="github">
  <diagram id="kz0Vf8M-wMx_7iGfDsY4" name="Page-1">
    <mxGraphModel dx="1422" dy="774" grid="1" gridSize="10" guides="1" tooltips="1" connect="1" arrows="1" fold="1" page="1" pageScale="1" pageWidth="850" pageHeight="1100" math="0" shadow="0">
      <root>
        <mxCell id="0" />
        <mxCell id="1" parent="0" />
        <mxCell id="QTfz_wE4GLbxt9cBhdo1-1" value="" style="strokeWidth=1;shadow=0;dashed=0;align=center;html=1;shape=mxgraph.mockup.containers.browserWindow;rSize=0;strokeColor=#666666;strokeColor2=#008cff;strokeColor3=#c4c4c4;mainText=,;recursiveResize=0;" parent="1" vertex="1">
          <mxGeometry x="90" y="40" width="670" height="1150" as="geometry" />
        </mxCell>
        <mxCell id="QTfz_wE4GLbxt9cBhdo1-2" value="Page 1" style="strokeWidth=1;shadow=0;dashed=0;align=center;html=1;shape=mxgraph.mockup.containers.anchor;fontSize=17;fontColor=#666666;align=left;" parent="QTfz_wE4GLbxt9cBhdo1-1" vertex="1">
          <mxGeometry x="60" y="12" width="110" height="26" as="geometry" />
        </mxCell>
        <mxCell id="QTfz_wE4GLbxt9cBhdo1-3" value="file://reportfile.html" style="strokeWidth=1;shadow=0;dashed=0;align=center;html=1;shape=mxgraph.mockup.containers.anchor;rSize=0;fontSize=17;fontColor=#666666;align=left;" parent="QTfz_wE4GLbxt9cBhdo1-1" vertex="1">
          <mxGeometry x="130" y="60" width="250" height="26" as="geometry" />
        </mxCell>
        <mxCell id="QTfz_wE4GLbxt9cBhdo1-4" value="ZAP RECON REPORT" style="strokeWidth=1;shadow=0;dashed=0;align=center;html=1;shape=mxgraph.mockup.text.alphanumeric;linkText=;html=1;fontStyle=4;fontSize=17;fontColor=#0000ff;" parent="QTfz_wE4GLbxt9cBhdo1-1" vertex="1">
          <mxGeometry x="240" y="120" width="200" height="50" as="geometry" />
        </mxCell>
        <mxCell id="QTfz_wE4GLbxt9cBhdo1-5" value="" style="verticalLabelPosition=bottom;shadow=0;dashed=0;align=center;html=1;verticalAlign=top;strokeWidth=1;shape=mxgraph.mockup.graphics.simpleIcon;strokeColor=#999999;" parent="QTfz_wE4GLbxt9cBhdo1-1" vertex="1">
          <mxGeometry x="160" y="130" width="50" height="50" as="geometry" />
        </mxCell>
        <mxCell id="QTfz_wE4GLbxt9cBhdo1-7" value="" style="verticalLabelPosition=bottom;verticalAlign=top;html=1;shape=mxgraph.basic.patternFillRect;fillStyle=hor;step=5;fillStrokeWidth=0.2;fillStrokeColor=#dddddd;" parent="QTfz_wE4GLbxt9cBhdo1-1" vertex="1">
          <mxGeometry x="10" y="200" width="320" height="20" as="geometry" />
        </mxCell>
        <mxCell id="QTfz_wE4GLbxt9cBhdo1-10" value="Wappalyzer Tech Stack Analysis" style="text;html=1;strokeColor=none;fillColor=none;align=center;verticalAlign=middle;whiteSpace=wrap;rounded=0;" parent="QTfz_wE4GLbxt9cBhdo1-1" vertex="1">
          <mxGeometry x="85" y="205" width="200" height="20" as="geometry" />
        </mxCell>
        <mxCell id="QTfz_wE4GLbxt9cBhdo1-13" value="" style="verticalLabelPosition=bottom;shadow=0;dashed=0;align=center;html=1;verticalAlign=top;strokeWidth=1;shape=mxgraph.mockup.graphics.pieChart;strokeColor=#008cff;parts=10,20,35;partColors=#e0e0e0,#d0d0d0,#c0c0c0,#b0b0b0,#a0a0a0;strokeWidth=2;" parent="QTfz_wE4GLbxt9cBhdo1-1" vertex="1">
          <mxGeometry x="335" y="240" width="165" height="160" as="geometry" />
        </mxCell>
        <mxCell id="QTfz_wE4GLbxt9cBhdo1-14" value="" style="verticalLabelPosition=bottom;shadow=0;dashed=0;align=center;html=1;verticalAlign=top;strokeWidth=1;shape=mxgraph.mockup.graphics.barChart;strokeColor=none;strokeColor2=none;strokeColor3=#666666;fillColor2=#008cff;fillColor3=#dddddd;" parent="QTfz_wE4GLbxt9cBhdo1-1" vertex="1">
          <mxGeometry x="10" y="240" width="190" height="160" as="geometry" />
        </mxCell>
        <mxCell id="QTfz_wE4GLbxt9cBhdo1-15" value="" style="strokeWidth=1;shadow=0;dashed=0;align=center;html=1;shape=mxgraph.mockup.forms.rrect;rSize=0;strokeColor=#999999;fillColor=#ffffff;recursiveResize=0;" parent="QTfz_wE4GLbxt9cBhdo1-1" vertex="1">
          <mxGeometry x="520" y="280" width="110" height="120" as="geometry" />
        </mxCell>
        <mxCell id="QTfz_wE4GLbxt9cBhdo1-16" value="Code 1" style="strokeWidth=1;shadow=0;dashed=0;align=center;html=1;shape=mxgraph.mockup.forms.rrect;rSize=0;fillColor=#eeeeee;strokeColor=#999999;gradientColor=#cccccc;align=left;spacingLeft=4;fontSize=17;fontColor=#666666;labelPosition=right;" parent="QTfz_wE4GLbxt9cBhdo1-15" vertex="1">
          <mxGeometry x="8" y="7.5" width="15" height="15" as="geometry" />
        </mxCell>
        <mxCell id="QTfz_wE4GLbxt9cBhdo1-17" value="Code 2" style="strokeWidth=1;shadow=0;dashed=0;align=center;html=1;shape=mxgraph.mockup.forms.rrect;rSize=0;strokeColor=#999999;gradientColor=#cccccc;align=left;spacingLeft=4;fontSize=17;fontColor=#666666;labelPosition=right;" parent="QTfz_wE4GLbxt9cBhdo1-15" vertex="1">
          <mxGeometry x="8" y="37.5" width="15" height="15" as="geometry" />
        </mxCell>
        <mxCell id="QTfz_wE4GLbxt9cBhdo1-18" value="Code 3" style="strokeWidth=1;shadow=0;dashed=0;align=center;html=1;shape=mxgraph.mockup.forms.checkbox;rSize=0;resizable=0;fillColor=#aaaaaa;strokeColor=#444444;gradientColor=#666666;align=left;spacingLeft=4;fontSize=17;fontColor=#008cff;labelPosition=right;" parent="QTfz_wE4GLbxt9cBhdo1-15" vertex="1">
          <mxGeometry x="8" y="67.5" width="15" height="15" as="geometry" />
        </mxCell>
        <mxCell id="QTfz_wE4GLbxt9cBhdo1-19" value="Code 4" style="strokeWidth=1;shadow=0;dashed=0;align=center;html=1;shape=mxgraph.mockup.forms.rrect;rSize=0;fillColor=#eeeeee;strokeColor=#999999;gradientColor=#cccccc;align=left;spacingLeft=4;fontSize=17;fontColor=#666666;labelPosition=right;" parent="QTfz_wE4GLbxt9cBhdo1-15" vertex="1">
          <mxGeometry x="8" y="97.5" width="15" height="15" as="geometry" />
        </mxCell>
        <mxCell id="86tZP4HO-KqmZcp44XGa-1" value="" style="strokeWidth=1;shadow=0;dashed=0;align=center;html=1;shape=mxgraph.mockup.forms.rrect;rSize=0;strokeColor=#999999;fillColor=#ffffff;" vertex="1" parent="QTfz_wE4GLbxt9cBhdo1-1">
          <mxGeometry x="210" y="290" width="90" height="110" as="geometry" />
        </mxCell>
        <mxCell id="86tZP4HO-KqmZcp44XGa-2" value="Legend" style="strokeWidth=1;shadow=0;dashed=0;align=center;html=1;shape=mxgraph.mockup.forms.rrect;rSize=0;strokeColor=#999999;fontColor=#008cff;fontSize=17;fillColor=#ffffff;resizeWidth=1;" vertex="1" parent="86tZP4HO-KqmZcp44XGa-1">
          <mxGeometry width="90.00000000000001" height="30" relative="1" as="geometry" />
        </mxCell>
        <mxCell id="86tZP4HO-KqmZcp44XGa-3" value="App 1" style="strokeWidth=1;shadow=0;dashed=0;align=center;html=1;shape=mxgraph.mockup.forms.anchor;fontSize=17;fontColor=#666666;align=left;spacingLeft=5;resizeWidth=1;" vertex="1" parent="86tZP4HO-KqmZcp44XGa-1">
          <mxGeometry width="90.00000000000001" height="20" relative="1" as="geometry">
            <mxPoint y="30" as="offset" />
          </mxGeometry>
        </mxCell>
        <mxCell id="86tZP4HO-KqmZcp44XGa-4" value="App 2" style="strokeWidth=1;shadow=0;dashed=0;align=center;html=1;shape=mxgraph.mockup.forms.anchor;fontSize=17;fontColor=#666666;align=left;spacingLeft=5;resizeWidth=1;" vertex="1" parent="86tZP4HO-KqmZcp44XGa-1">
          <mxGeometry width="90.00000000000001" height="20" relative="1" as="geometry">
            <mxPoint y="50" as="offset" />
          </mxGeometry>
        </mxCell>
        <mxCell id="86tZP4HO-KqmZcp44XGa-6" value="App 4" style="strokeWidth=1;shadow=0;dashed=0;align=center;html=1;shape=mxgraph.mockup.forms.anchor;fontSize=17;fontColor=#666666;align=left;spacingLeft=5;resizeWidth=1;" vertex="1" parent="86tZP4HO-KqmZcp44XGa-1">
          <mxGeometry width="90.00000000000001" height="20" relative="1" as="geometry">
            <mxPoint y="90" as="offset" />
          </mxGeometry>
        </mxCell>
        <mxCell id="86tZP4HO-KqmZcp44XGa-7" value="App 3" style="strokeWidth=1;shadow=0;dashed=0;align=center;html=1;shape=mxgraph.mockup.forms.anchor;fontSize=17;fontColor=#666666;align=left;spacingLeft=5;resizeWidth=1;" vertex="1" parent="86tZP4HO-KqmZcp44XGa-1">
          <mxGeometry y="70.005" width="90.00000000000001" height="13.75" as="geometry" />
        </mxCell>
        <mxCell id="86tZP4HO-KqmZcp44XGa-13" value="&lt;i&gt;site: www.targetwebsite.com&lt;br&gt;&lt;/i&gt;" style="text;html=1;strokeColor=none;fillColor=none;align=center;verticalAlign=middle;whiteSpace=wrap;rounded=0;shadow=0;" vertex="1" parent="QTfz_wE4GLbxt9cBhdo1-1">
          <mxGeometry x="230" y="160" width="210" height="20" as="geometry" />
        </mxCell>
        <mxCell id="86tZP4HO-KqmZcp44XGa-11" value="##" style="text;html=1;fillColor=none;align=center;verticalAlign=middle;whiteSpace=wrap;rounded=0;shadow=0;strokeColor=#000000;" vertex="1" parent="QTfz_wE4GLbxt9cBhdo1-1">
          <mxGeometry x="110" y="730" width="30" height="20" as="geometry" />
        </mxCell>
        <mxCell id="86tZP4HO-KqmZcp44XGa-14" value="&lt;table style=&quot;width: 100% ; height: 100% ; border-collapse: collapse&quot; width=&quot;100%&quot; cellpadding=&quot;4&quot; border=&quot;1&quot;&gt;&lt;tbody&gt;&lt;tr style=&quot;background-color: #a7c942 ; color: #ffffff ; border: 1px solid #98bf21&quot;&gt;&lt;td&gt;ID&lt;/td&gt;&lt;th align=&quot;left&quot;&gt;Paramname&lt;/th&gt;&lt;th align=&quot;left&quot;&gt;Value&lt;/th&gt;&lt;th align=&quot;left&quot;&gt;ParamType&lt;/th&gt;&lt;td&gt;IsAuthenticated&lt;br&gt;&lt;/td&gt;&lt;td&gt;IsReflected&lt;br&gt;&lt;/td&gt;&lt;/tr&gt;&lt;tr style=&quot;border: 1px solid #98bf21&quot;&gt;&lt;td&gt;#&lt;br&gt;&lt;/td&gt;&lt;td&gt;param 1 [4]&lt;br&gt;&lt;/td&gt;&lt;td&gt;value 1, value 1b, value 1c, value 1d&lt;br&gt;&lt;/td&gt;&lt;td&gt;&lt;font color=&quot;#3333FF&quot;&gt;&lt;font color=&quot;#000000&quot;&gt;FORM &lt;/font&gt;&lt;u&gt;[1][2][3][4]&lt;br&gt;&lt;/u&gt;&lt;/font&gt;&lt;/td&gt;&lt;td&gt;YES&lt;br&gt;&lt;/td&gt;&lt;td&gt;YES&lt;br&gt;&lt;/td&gt;&lt;/tr&gt;&lt;tr style=&quot;background-color: #eaf2d3 ; border: 1px solid #98bf21&quot;&gt;&lt;td&gt;#&lt;br&gt;&lt;/td&gt;&lt;td&gt;param 2 [3]&lt;br&gt;&lt;/td&gt;&lt;td&gt;value 2, value 2b, value 2c&lt;br&gt;&lt;/td&gt;&lt;td&gt;&lt;font color=&quot;#3333FF&quot;&gt;&lt;font color=&quot;#000000&quot;&gt;COOKIE&lt;/font&gt;&lt;font color=&quot;#000000&quot;&gt; &lt;/font&gt;&lt;u&gt;[1][2][3]&lt;br&gt;&lt;/u&gt;&lt;/font&gt;&lt;/td&gt;&lt;td&gt;NO&lt;br&gt;&lt;/td&gt;&lt;td&gt;YES&lt;br&gt;&lt;/td&gt;&lt;/tr&gt;&lt;tr style=&quot;border: 1px solid #98bf21&quot;&gt;&lt;td&gt;#&lt;br&gt;&lt;/td&gt;&lt;td&gt;param 3 [1]&lt;br&gt;&lt;/td&gt;&lt;td&gt;value 3&lt;br&gt;&lt;/td&gt;&lt;td&gt;&lt;font color=&quot;#3333FF&quot;&gt;&lt;font color=&quot;#000000&quot;&gt;URL &lt;/font&gt;&lt;u&gt;[1]&lt;br&gt;&lt;/u&gt;&lt;/font&gt;&lt;/td&gt;&lt;td&gt;NO&lt;br&gt;&lt;/td&gt;&lt;td&gt;NO&lt;br&gt;&lt;/td&gt;&lt;/tr&gt;&lt;/tbody&gt;&lt;/table&gt;" style="text;html=1;strokeColor=#c0c0c0;overflow=fill;rounded=0;shadow=1;fillColor=#ffffff;" vertex="1" parent="QTfz_wE4GLbxt9cBhdo1-1">
          <mxGeometry x="25" y="760" width="630" height="90" as="geometry" />
        </mxCell>
        <mxCell id="86tZP4HO-KqmZcp44XGa-21" value="&lt;table style=&quot;width: 100% ; height: 100% ; border-collapse: collapse&quot; width=&quot;100%&quot; cellpadding=&quot;4&quot; border=&quot;1&quot;&gt;&lt;tbody&gt;&lt;tr style=&quot;background-color: #a7c942 ; color: #ffffff ; border: 1px solid #98bf21&quot;&gt;&lt;td&gt;ID&lt;/td&gt;&lt;th align=&quot;left&quot;&gt;Evidence&lt;/th&gt;&lt;/tr&gt;&lt;tr style=&quot;border: 1px solid #98bf21&quot;&gt;&lt;td&gt;#&lt;br&gt;&lt;/td&gt;&lt;td&gt;&lt;font color=&quot;#3333FF&quot;&gt;&lt;u&gt;Error Message 1&lt;/u&gt;&lt;/font&gt;&lt;br&gt;&lt;/td&gt;&lt;/tr&gt;&lt;tr style=&quot;background-color: #eaf2d3 ; border: 1px solid #98bf21&quot;&gt;&lt;td&gt;#&lt;br&gt;&lt;/td&gt;&lt;td&gt;&lt;font color=&quot;#3333FF&quot;&gt;&lt;u&gt;Error Evidence 2&lt;/u&gt;&lt;/font&gt;&lt;br&gt;&lt;/td&gt;&lt;/tr&gt;&lt;tr style=&quot;border: 1px solid #98bf21&quot;&gt;&lt;td&gt;#&lt;br&gt;&lt;/td&gt;&lt;td&gt;&lt;font color=&quot;#3333FF&quot;&gt;&lt;u&gt;Error Evidence 3&lt;/u&gt;&lt;/font&gt;&lt;br&gt;&lt;/td&gt;&lt;/tr&gt;&lt;/tbody&gt;&lt;/table&gt;" style="text;html=1;strokeColor=#c0c0c0;overflow=fill;rounded=0;shadow=1;fillColor=#ffffff;" vertex="1" parent="QTfz_wE4GLbxt9cBhdo1-1">
          <mxGeometry x="25" y="1040" width="630" height="90" as="geometry" />
        </mxCell>
        <mxCell id="86tZP4HO-KqmZcp44XGa-18" value="&lt;table style=&quot;width: 100% ; height: 100% ; border-collapse: collapse&quot; width=&quot;100%&quot; cellpadding=&quot;4&quot; border=&quot;1&quot;&gt;&lt;tbody&gt;&lt;tr style=&quot;background-color: #a7c942 ; color: #ffffff ; border: 1px solid #98bf21&quot;&gt;&lt;td&gt;ID&lt;/td&gt;&lt;th align=&quot;left&quot;&gt;FileName/Endpoint&lt;/th&gt;&lt;th align=&quot;left&quot;&gt;No. of comments&lt;br&gt;&lt;/th&gt;&lt;th align=&quot;left&quot;&gt;Filetype&lt;/th&gt;&lt;/tr&gt;&lt;tr style=&quot;border: 1px solid #98bf21&quot;&gt;&lt;td&gt;#&lt;br&gt;&lt;/td&gt;&lt;td&gt;&lt;font color=&quot;#3333FF&quot;&gt;&lt;u&gt;mainfile.js&lt;/u&gt;&lt;/font&gt;&lt;br&gt;&lt;/td&gt;&lt;td&gt;##&lt;br&gt;&lt;/td&gt;&lt;td&gt;javascript&lt;/td&gt;&lt;/tr&gt;&lt;tr style=&quot;background-color: #eaf2d3 ; border: 1px solid #98bf21&quot;&gt;&lt;td&gt;#&lt;br&gt;&lt;/td&gt;&lt;td&gt;&lt;font color=&quot;#3333FF&quot;&gt;&lt;u&gt;homepage.html&lt;/u&gt;&lt;/font&gt;&lt;br&gt;&lt;/td&gt;&lt;td&gt;##&lt;br&gt;&lt;/td&gt;&lt;td&gt;html&lt;/td&gt;&lt;/tr&gt;&lt;tr style=&quot;border: 1px solid #98bf21&quot;&gt;&lt;td&gt;#&lt;br&gt;&lt;/td&gt;&lt;td&gt;&lt;font color=&quot;#3333FF&quot;&gt;&lt;u&gt;/clients&lt;/u&gt;&lt;/font&gt;&lt;br&gt;&lt;/td&gt;&lt;td&gt;##&lt;br&gt;&lt;/td&gt;&lt;td&gt;html&lt;/td&gt;&lt;/tr&gt;&lt;/tbody&gt;&lt;/table&gt;" style="text;html=1;strokeColor=#c0c0c0;overflow=fill;rounded=0;shadow=1;fillColor=#ffffff;" vertex="1" parent="QTfz_wE4GLbxt9cBhdo1-1">
          <mxGeometry x="25" y="900" width="630" height="90" as="geometry" />
        </mxCell>
        <mxCell id="86tZP4HO-KqmZcp44XGa-27" value="" style="verticalLabelPosition=bottom;shadow=0;dashed=0;align=center;html=1;verticalAlign=top;strokeWidth=1;shape=mxgraph.mockup.graphics.columnChart;strokeColor=none;strokeColor2=none;strokeColor3=#666666;fillColor2=#008cff;fillColor3=#dddddd;rounded=0;fillColor=none;gradientColor=none;" vertex="1" parent="QTfz_wE4GLbxt9cBhdo1-1">
          <mxGeometry x="140" y="500" width="400" height="200" as="geometry" />
        </mxCell>
        <mxCell id="86tZP4HO-KqmZcp44XGa-31" value="" style="strokeWidth=1;shadow=0;dashed=0;align=center;html=1;shape=mxgraph.mockup.forms.rrect;rSize=0;strokeColor=#999999;fillColor=#ffffff;" vertex="1" parent="QTfz_wE4GLbxt9cBhdo1-1">
          <mxGeometry x="520" y="530" width="90" height="110" as="geometry" />
        </mxCell>
        <mxCell id="86tZP4HO-KqmZcp44XGa-32" value="Legend" style="strokeWidth=1;shadow=0;dashed=0;align=center;html=1;shape=mxgraph.mockup.forms.rrect;rSize=0;strokeColor=#999999;fontColor=#008cff;fontSize=17;fillColor=#ffffff;resizeWidth=1;" vertex="1" parent="86tZP4HO-KqmZcp44XGa-31">
          <mxGeometry width="90.00000000000001" height="30" relative="1" as="geometry" />
        </mxCell>
        <mxCell id="86tZP4HO-KqmZcp44XGa-33" value="Alert1" style="strokeWidth=1;shadow=0;dashed=0;align=center;html=1;shape=mxgraph.mockup.forms.anchor;fontSize=17;fontColor=#666666;align=left;spacingLeft=5;resizeWidth=1;" vertex="1" parent="86tZP4HO-KqmZcp44XGa-31">
          <mxGeometry width="90.00000000000001" height="20" relative="1" as="geometry">
            <mxPoint y="30" as="offset" />
          </mxGeometry>
        </mxCell>
        <mxCell id="86tZP4HO-KqmZcp44XGa-34" value="Alert2" style="strokeWidth=1;shadow=0;dashed=0;align=center;html=1;shape=mxgraph.mockup.forms.anchor;fontSize=17;fontColor=#666666;align=left;spacingLeft=5;resizeWidth=1;" vertex="1" parent="86tZP4HO-KqmZcp44XGa-31">
          <mxGeometry width="90.00000000000001" height="20" relative="1" as="geometry">
            <mxPoint y="50" as="offset" />
          </mxGeometry>
        </mxCell>
        <mxCell id="86tZP4HO-KqmZcp44XGa-35" value="Alert4" style="strokeWidth=1;shadow=0;dashed=0;align=center;html=1;shape=mxgraph.mockup.forms.anchor;fontSize=17;fontColor=#666666;align=left;spacingLeft=5;resizeWidth=1;" vertex="1" parent="86tZP4HO-KqmZcp44XGa-31">
          <mxGeometry width="90.00000000000001" height="20" relative="1" as="geometry">
            <mxPoint y="90" as="offset" />
          </mxGeometry>
        </mxCell>
        <mxCell id="86tZP4HO-KqmZcp44XGa-36" value="Alert3" style="strokeWidth=1;shadow=0;dashed=0;align=center;html=1;shape=mxgraph.mockup.forms.anchor;fontSize=17;fontColor=#666666;align=left;spacingLeft=5;resizeWidth=1;" vertex="1" parent="86tZP4HO-KqmZcp44XGa-31">
          <mxGeometry y="70.005" width="90.00000000000001" height="13.75" as="geometry" />
        </mxCell>
        <mxCell id="QTfz_wE4GLbxt9cBhdo1-6" value="" style="verticalLabelPosition=bottom;shadow=0;dashed=0;align=center;html=1;verticalAlign=top;strokeWidth=1;shape=mxgraph.mockup.graphics.simpleIcon;strokeColor=#999999;" parent="1" vertex="1">
          <mxGeometry x="550" y="170" width="50" height="50" as="geometry" />
        </mxCell>
        <mxCell id="QTfz_wE4GLbxt9cBhdo1-8" value="" style="verticalLabelPosition=bottom;verticalAlign=top;html=1;shape=mxgraph.basic.patternFillRect;fillStyle=hor;step=5;fillStrokeWidth=0.2;fillStrokeColor=#dddddd;" parent="1" vertex="1">
          <mxGeometry x="425" y="240" width="320" height="20" as="geometry" />
        </mxCell>
        <mxCell id="QTfz_wE4GLbxt9cBhdo1-11" value="HTTP Response Code Stats" style="text;html=1;strokeColor=none;fillColor=none;align=center;verticalAlign=middle;whiteSpace=wrap;rounded=0;" parent="1" vertex="1">
          <mxGeometry x="500" y="245" width="170" height="20" as="geometry" />
        </mxCell>
        <mxCell id="86tZP4HO-KqmZcp44XGa-8" value="" style="verticalLabelPosition=bottom;verticalAlign=top;html=1;shape=mxgraph.basic.patternFillRect;fillStyle=hor;step=5;fillStrokeWidth=0.2;fillStrokeColor=#dddddd;" vertex="1" parent="1">
          <mxGeometry x="235" y="770" width="510" height="20" as="geometry" />
        </mxCell>
        <mxCell id="86tZP4HO-KqmZcp44XGa-9" value="" style="verticalLabelPosition=bottom;verticalAlign=top;html=1;shape=mxgraph.basic.patternFillRect;fillStyle=hor;step=5;fillStrokeWidth=0.2;fillStrokeColor=#dddddd;" vertex="1" parent="1">
          <mxGeometry x="115" y="770" width="85" height="20" as="geometry" />
        </mxCell>
        <mxCell id="86tZP4HO-KqmZcp44XGa-12" value="Application Entry Points" style="text;html=1;strokeColor=none;fillColor=none;align=center;verticalAlign=middle;whiteSpace=wrap;rounded=0;" vertex="1" parent="1">
          <mxGeometry x="422.5" y="770" width="135" height="20" as="geometry" />
        </mxCell>
        <mxCell id="86tZP4HO-KqmZcp44XGa-15" value="" style="verticalLabelPosition=bottom;verticalAlign=top;html=1;shape=mxgraph.basic.patternFillRect;fillStyle=hor;step=5;fillStrokeWidth=0.2;fillStrokeColor=#dddddd;" vertex="1" parent="1">
          <mxGeometry x="115" y="910" width="630" height="20" as="geometry" />
        </mxCell>
        <mxCell id="86tZP4HO-KqmZcp44XGa-17" value="Commented-out Code" style="text;html=1;strokeColor=none;fillColor=none;align=center;verticalAlign=middle;whiteSpace=wrap;rounded=0;" vertex="1" parent="1">
          <mxGeometry x="362.5" y="910" width="135" height="20" as="geometry" />
        </mxCell>
        <mxCell id="86tZP4HO-KqmZcp44XGa-19" value="" style="verticalLabelPosition=bottom;verticalAlign=top;html=1;shape=mxgraph.basic.patternFillRect;fillStyle=hor;step=5;fillStrokeWidth=0.2;fillStrokeColor=#dddddd;" vertex="1" parent="1">
          <mxGeometry x="115" y="1050" width="630" height="20" as="geometry" />
        </mxCell>
        <mxCell id="86tZP4HO-KqmZcp44XGa-20" value="Application Error Disclosure" style="text;html=1;strokeColor=none;fillColor=none;align=center;verticalAlign=middle;whiteSpace=wrap;rounded=0;" vertex="1" parent="1">
          <mxGeometry x="344" y="1050" width="172" height="20" as="geometry" />
        </mxCell>
        <mxCell id="86tZP4HO-KqmZcp44XGa-28" value="No of Forms:" style="text;html=1;strokeColor=none;fillColor=none;align=center;verticalAlign=middle;whiteSpace=wrap;rounded=0;" vertex="1" parent="1">
          <mxGeometry x="108.75" y="770" width="97.5" height="20" as="geometry" />
        </mxCell>
        <mxCell id="86tZP4HO-KqmZcp44XGa-29" value="" style="verticalLabelPosition=bottom;verticalAlign=top;html=1;shape=mxgraph.basic.patternFillRect;fillStyle=hor;step=5;fillStrokeWidth=0.2;fillStrokeColor=#dddddd;" vertex="1" parent="1">
          <mxGeometry x="170" y="490" width="510" height="20" as="geometry" />
        </mxCell>
        <mxCell id="86tZP4HO-KqmZcp44XGa-30" value="Passive Scan Alerts" style="text;html=1;strokeColor=none;fillColor=none;align=center;verticalAlign=middle;whiteSpace=wrap;rounded=0;" vertex="1" parent="1">
          <mxGeometry x="358" y="490" width="135" height="20" as="geometry" />
        </mxCell>
      </root>
    </mxGraphModel>
  </diagram>
</mxfile>
